<?xml version="1.0" encoding="UTF-8" standalone="no"?>
<svg width="38px" height="38px" viewBox="0 0 38 38" version="1.1" xmlns="http://www.w3.org/2000/svg" xmlns:xlink="http://www.w3.org/1999/xlink">
    <!-- Generator: Sketch 3.8.3 (29802) - http://www.bohemiancoding.com/sketch -->
    <title>Unknown Copy 3</title>
    <desc>Created with Sketch.</desc>
    <defs></defs>
    <g id="Page-1" stroke="none" stroke-width="1" fill="none" fill-rule="evenodd">
        <g id="Artboard" transform="translate(-68.000000, -239.000000)">
            <g id="Unknown-Copy-3" transform="translate(68.031067, 239.230538)">
                <path d="M18.5,36.8784125 C28.6955556,36.8784125 37,28.6285474 37,18.5 C37,8.37145265 28.6955556,0.121587462 18.5,0.121587462 C8.30444444,0.121587462 0,8.37145265 0,18.5 C0,28.6285474 8.30444444,36.8784125 18.5,36.8784125" id="Shape" fill="#13B5EA"></path>
                <path d="M13.5641804,18.5511291 C13.5641804,19.1229019 14.0575138,19.5313111 14.5508471,19.5313111 C15.1264027,19.5313111 15.5375138,19.0412201 15.5375138,18.4694473 C15.5375138,17.8976744 15.0441804,17.4892653 14.4686249,17.4892653 C14.0575138,17.5709471 13.5641804,17.9793563 13.5641804,18.5511291 L13.5641804,18.5511291 Z M11.8432502,18.4220593 C11.8432502,16.7884226 13.1588058,15.4815133 14.8032502,15.4815133 C16.4476947,15.4815133 17.7632502,16.7884226 17.7632502,18.4220593 C17.7632502,20.055696 16.4476947,21.3626053 14.8032502,21.3626053 C13.1588058,21.4442872 11.8432502,20.055696 11.8432502,18.4220593 L11.8432502,18.4220593 Z M10.6959634,18.4183182 C10.6959634,20.7054095 12.5870745,22.5024098 14.8070745,22.5024098 C17.0270745,22.5024098 18.9181856,20.6237277 18.9181856,18.4183182 C18.9181856,16.1312268 17.0270745,14.3342265 14.8070745,14.3342265 C12.5870745,14.3342265 10.6959634,16.2129087 10.6959634,18.4183182 L10.6959634,18.4183182 Z M24.1733333,14.4159083 L24.0088889,14.4159083 C23.5155556,14.4159083 23.0222222,14.579272 22.5288889,14.9059993 C22.4466667,14.6609538 22.2,14.4975902 21.9533333,14.4975902 C21.6244444,14.4975902 21.3777778,14.7426357 21.3777778,15.069363 L21.3777778,15.069363 L21.3777778,22.0123188 C21.3777778,22.3390462 21.6244444,22.5840917 21.9533333,22.5024098 C22.2822222,22.5024098 22.4466667,22.2573643 22.4466667,22.0123188 L22.4466667,17.6831817 C22.4466667,16.2945905 22.6111111,15.7228177 23.7622222,15.559454 L24.0088889,15.559454 C24.3377778,15.559454 24.5844444,15.3144085 24.5844444,14.9876812 C24.7488889,14.6609538 24.5022222,14.4159083 24.1733333,14.4159083 L24.1733333,14.4159083 Z M25.7840739,17.7794993 L25.7840739,17.7794993 C26.195185,16.1458626 27.8396294,15.1656806 29.4018517,15.5740898 C30.4707406,15.8191353 31.2929628,16.7176354 31.5396294,17.7794993 L25.7840739,17.7794993 L25.7840739,17.7794993 L25.7840739,17.7794993 Z M32.815604,17.6641516 C32.5689374,16.5206059 31.9111596,15.5404239 31.0067152,14.9686511 C29.6089374,14.0701509 27.8000485,14.1518328 26.4022707,15.0503329 C25.0044929,16.0305149 24.3467152,17.7458334 24.7578263,19.4611519 C25.1689374,21.0947886 26.5667152,22.3200161 28.2933818,22.5650616 C28.7867152,22.6467434 29.2800485,22.5650616 29.7733818,22.4833798 C30.1844929,22.4016979 30.595604,22.2383343 31.0067152,21.9932888 C31.4178263,21.7482433 31.7467152,21.4215159 32.075604,21.0131068 L32.075604,21.0131068 C32.3222707,20.7680613 32.2400485,20.3596521 31.9933818,20.1146066 C31.7467152,19.9512429 31.4178263,19.8695611 31.1711596,20.2779703 C31.0889374,20.3596521 31.0067152,20.4413339 31.0067152,20.5230158 C30.7600485,20.7680613 30.5133818,21.0131068 30.1844929,21.1764704 C29.7733818,21.4215159 29.2800485,21.5031978 28.7867152,21.5031978 C27.1422707,21.5031978 26.2378263,20.3596521 25.9911596,19.5428338 C25.9089374,19.3794701 25.9089374,19.2161064 25.8267152,19.0527428 L25.8267152,18.9710609 L31.7467152,18.9710609 C32.4867152,18.8893791 32.8978263,18.3176063 32.815604,17.6641516 L32.815604,17.6641516 L32.815604,17.6641516 Z" id="Shape" fill="#FFFFFF"></path>
                <text id="C" font-family="AvenirNext-Medium, Avenir Next" font-size="10.3255814" font-weight="400" letter-spacing="1.20000005" fill="#FFFFFF">
                    <tspan x="2.58139535" y="21.7596899">C</tspan>
                </text>
            </g>
        </g>
    </g>
</svg>